<svg enable-background="new 0 0 140 140" height="512" viewBox="0 0 140 140" width="512" xmlns="http://www.w3.org/2000/svg"><circle cx="70" cy="70" fill="#dc594e" r="64"/><path d="m115.3800049 51.5300293 18.6199951 18.619873c-.0800781 35.2700196-28.6999512 63.8500977-64 63.8500977-6.9699707 0-13.6799316-1.1300049-19.9599609-3.1899414l-21.7299805-21.7301025v-37.1999512l-5.7399902-36.7399902 5.7399902-.9000244v-3.9799805h25.4799805l25.1699219-3.9399414 3.9400635 3.9399414h2.4899902l20.7299805 20.7299805c2.7399902-2.1699219 6.7200927-2.0000001 9.2600097.540039z" opacity=".1"/><path d="m28.31283 30.257635h57.076889v78.819191h-57.076889z" fill="#ececec" transform="matrix(.988 -.154 .154 .988 -10.072 9.61)"/><path d="m28.31283 30.257635h57.076889v78.819191h-57.076889z" fill="#e6e7e8"/><path d="m34.312824 42.967968h13.420666v13.420666h-13.420666z" fill="#d6b251"/><g fill="#dad7dc"><path d="m53.40691 49.432575h25.982815v1.063423h-25.982815z"/><path d="m53.40691 52.378895h25.982815v1.063423h-25.982815z"/><path d="m53.40691 55.325211h15.502723v1.063423h-15.502723z"/></g><path d="m39.7754288 52.8311386c-.266674 0-.522541-.1060791-.7111244-.2946663l-1.7979469-1.7984352c-.3928871-.3928871-.3928871-1.0293617 0-1.4222488s1.0293617-.3928871 1.4222488 0l1.0868225 1.0873146 3.5821381-3.5831223c.3928871-.3928871 1.0293617-.3928871 1.4222488 0 .3928871.3928833.3928871 1.0293617 0 1.422245l-4.2932625 4.2942467c-.1885872.1885872-.4444542.2946663-.7111244.2946663z" fill="#e6e7e8"/><path d="m34.312824 62.956898h13.420666v13.420666h-13.420666z" fill="#aa975d"/><g fill="#dad7dc"><path d="m53.40691 69.421501h25.982815v1.063423h-25.982815z"/><path d="m53.40691 72.367821h25.982815v1.063423h-25.982815z"/><path d="m53.40691 75.31414h15.502723v1.063423h-15.502723z"/></g><path d="m39.7754288 72.8200684c-.266674 0-.522541-.1060791-.7111244-.2946625l-1.7979469-1.798439c-.3928871-.3928909-.3928871-1.0293655 0-1.4222488.3928871-.3928909 1.0293617-.3928909 1.4222488 0l1.0868225 1.0873108 3.5821381-3.5831223c.3928871-.3928833 1.0293617-.3928833 1.4222488 0s.3928871 1.0293655 0 1.4222488l-4.2932625 4.2942505c-.1885872.1885834-.4444542.2946625-.7111244.2946625z" fill="#e6e7e8"/><path d="m34.312824 82.945824h13.420666v13.420666h-13.420666z" fill="#d6b251"/><path d="m53.40691 89.410431h25.982815v1.063423h-25.982815z" fill="#dad7dc"/><path d="m53.40691 92.356751h25.982815v1.063423h-25.982815z" fill="#dad7dc"/><path d="m53.40691 95.30307h15.502723v1.063423h-15.502723z" fill="#dad7dc"/><path d="m39.7754288 92.8089981c-.266674 0-.522541-.1060791-.7111244-.2946701l-1.7979469-1.7984314c-.3928871-.3928909-.3928871-1.0293655 0-1.4222488.3928871-.3928909 1.0293617-.3928909 1.4222488 0l1.0868225 1.0873108 3.5821381-3.5831223c.3928871-.3928833 1.0293617-.3928833 1.4222488 0s.3928871 1.0293579 0 1.4222488l-4.2932625 4.2942429c-.1885872.188591-.4444542.2946701-.7111244.2946701z" fill="#e6e7e8"/><path d="m107.6934814 62.4903564-3.2880859-3.2880859-3.2879639-3.2879639-32.0605468 32.0603028 3.2880859 3.2880859 3.2880859 3.2880859 3.288086 3.288086 32.0603027-32.0605469z" fill="#509fd7"/><path d="m67.349068 74.551552h45.340302v4.649995h-45.340302z" fill="#4388b9" transform="matrix(.707 -.707 .707 .707 -27.994 86.17)"/><path d="m115.3775101 51.5264702c-2.7229004-2.7229004-7.1375732-2.7229004-9.8604736 0l-2.7538147 2.7456017 9.8604736 9.8604736 2.7538147-2.7454796c2.7229004-2.7229004 2.7229004-7.1376953 0-9.8605957z" fill="#e7a04e"/><path d="m63.6249237 103.2708282 5.824585-2.0684433-3.7561417-3.756134z" fill="#293b44"/><path d="m69.4495087 101.2023849 9.4715881-3.3635406-9.8641891-9.8641815-3.3635407 9.4715881z" fill="#fdd96f"/><path d="m105.038666 52.768562h4.248692v13.944851h-4.248692z" fill="#e6e7e8" transform="matrix(.707 -.707 .707 .707 -10.856 93.273)"/></svg>