<svg id="Layer_1" enable-background="new 0 0 512 512" height="512" viewBox="0 0 512 512" width="512" xmlns="http://www.w3.org/2000/svg"><g id="XMLID_2199_"><g id="XMLID_940_"><g id="XMLID_941_"><g id="XMLID_942_"><g id="XMLID_943_"><g id="XMLID_944_"><g id="XMLID_945_"><g id="XMLID_946_"><g id="XMLID_947_"><g id="XMLID_948_"><g id="XMLID_949_"><g id="XMLID_950_"><g id="XMLID_952_"><g id="XMLID_953_"><g id="XMLID_954_"><path id="XMLID_1120_" d="m512 256c0 106.65-65.22 198.07-157.95 236.54-30.2 12.54-47.32-25.947-82.05-25.947-17.09 0-49.8 43.727-65.95 40.527-117.47-23.23-206.05-126.83-206.05-251.12 0-141.38 114.62-256 256-256s256 114.62 256 256z" fill="#ff6378"/></g></g></g></g></g></g></g></g></g></g></g></g></g></g><path id="XMLID_2300_" d="m272 466.593c34.73 0 51.85 38.487 82.05 25.947 75.446-31.299 132.678-97.651 151.394-178.736l-232.994-232.994-118.652 118.633 40.895 40.989-7.693 59.401-45.9 33.607s43.97 61.6 60.04 77.73l8.825 8.49-3.915 87.46c16.15 3.2 48.86-40.527 65.95-40.527z" fill="#ed1c86"/><g id="XMLID_2098_"><ellipse id="XMLID_2007_" cx="208.5" cy="135.499" fill="#00ff95" rx="84.167" ry="84.167" transform="matrix(.16 -.987 .987 .16 41.353 319.602)"/><path id="XMLID_1204_" d="m292.67 135.5c0 46.48-37.69 84.17-84.17 84.17v-168.34c46.48 0 84.17 37.69 84.17 84.17z" fill="#00ce8e"/><circle id="XMLID_1055_" cx="208.5" cy="135.499" fill="#fff" r="54.97"/><path id="XMLID_1202_" d="m263.47 135.5c0 30.36-24.61 54.97-54.97 54.97v-109.94c30.36 0 54.97 24.61 54.97 54.97z" fill="#fff5ca"/><path id="XMLID_1115_" d="m380.34 259.94v88.51c0 23-10.2 43.72-26.29 57.9v86.19c-30.2 12.54-63.32 19.46-98.05 19.46-17.09 0-33.8-1.68-49.95-4.88v-91.98c-1.87-1.25-3.53-2.58-4.91-3.97-16.07-16.13-60.04-77.73-60.04-77.73-6.16-7.81-9.45-16.47-9.45-24.72 0-6.19 1.86-12.15 5.74-17.33 9.05-12.07 26.33-14.54 38.4-5.49l6.46 4.84v-151.98c0-7.21 2.95-13.76 7.7-18.52 4.75-4.75 11.3-7.7 18.51-7.7 14.42 0 26.21 11.8 26.21 26.22v93.91c2.31-3.75 5.54-6.89 9.37-9.09s8.26-3.46 12.98-3.46c12.44 0 22.93 8.79 25.56 20.47 2.24-4.07 5.52-7.48 9.47-9.88 3.95-2.41 8.59-3.79 13.52-3.79 12.45 0 22.93 6.87 25.57 18.54 4.47-8.12 13.11-11.73 22.99-11.73 14.42 0 26.21 11.8 26.21 26.21z" fill="#ffe2b9"/><path id="XMLID_2078_" d="m380.34 259.94v88.51c0 23-10.2 43.72-26.29 57.9v86.19c-22.39 9.3-46.39 15.51-71.47 18.09v-270.04c2.24-4.07 5.52-7.48 9.47-9.88 3.95-2.41 8.59-3.79 13.52-3.79 12.45 0 22.93 6.87 25.57 18.54 4.47-8.12 13.11-11.73 22.99-11.73 14.42 0 26.21 11.8 26.21 26.21z" fill="#ffc473"/></g></g></svg>