<svg id="Layer_1" enable-background="new 0 0 512 512" height="512" viewBox="0 0 512 512" width="512" xmlns="http://www.w3.org/2000/svg"><g id="XMLID_763_"><g id="XMLID_1214_"><g id="XMLID_1215_"><g id="XMLID_1216_"><g id="XMLID_1217_"><g id="XMLID_1218_"><g id="XMLID_1219_"><g id="XMLID_1220_"><g id="XMLID_1221_"><g id="XMLID_1222_"><g id="XMLID_1223_"><g id="XMLID_1224_"><g id="XMLID_1225_"><g id="XMLID_1226_"><g id="XMLID_1227_"><path id="XMLID_1050_" d="m512 256c0 141.38-114.62 256-256 256-83.8 0-158.19-40.26-204.89-102.5-15.914-21.212-3.352-60.912-12.11-86.5-7.791-22.76-37.725-31.027-38.77-56.17-.15-3.59-.23-7.2-.23-10.83 0-141.38 114.62-256 256-256s256 114.62 256 256z" fill="#00e9f6"/></g></g></g></g></g></g></g></g></g></g></g></g></g></g><path id="XMLID_884_" d="m256 512c141.38 0 256-114.62 256-256 0-33.067-6.272-64.669-17.688-93.685l-71.316-71.315-292.041 203.92-36.955-28.09-42.89 142.67c46.7 62.24 121.09 102.5 204.89 102.5z" fill="#2ebff0"/><g id="XMLID_24_"><g id="XMLID_256_"><path id="XMLID_748_" d="m114.946 91h308.05v281.442h-308.05z" fill="#ff9b00"/><path id="XMLID_1819_" d="m268.97 91h154.03v281.44h-154.03z" fill="#ff7600"/><path id="XMLID_260_" d="m301.471 91v77.924l-6.5-6.887-6.5 6.887-6.5-6.887-6.5 6.887-6.5-6.887-6.5 6.887-6.5-6.887-6.5 6.887-6.5-6.887-6.5 6.887v-77.924z" fill="#797880"/><path id="XMLID_1817_" d="m301.47 91v77.92l-6.5-6.88-6.5 6.88-6.5-6.88-6.5 6.88-6.5-6.88v-71.04z" fill="#57545c"/><g id="XMLID_257_" fill="#ffee93"><path id="XMLID_259_" d="m352.484 302.92h48.57v50h-48.57z"/><path id="XMLID_258_" d="m293.769 302.92h48.57v50h-48.57z"/></g></g><g id="XMLID_252_"><path id="XMLID_1179_" d="m380.92 399.2c.06 15.04-13.58 27.28-30.5 27.36l-113.66.47c-20.92.09-44.91-.44-61.07-15-20.25-18.27-23.3-18.09-38.99-18.01l-96.24.15c-14.69-22.86-25.84-48.22-32.68-75.29-1.47-5.83-2.74-11.73-3.8-17.71l157.03-.33c2.03-.01 3.97.72 5.37 2.04l72.42 67.62c1.24 1.16 2.89 1.86 4.66 2.01.23.02.46.03.7.03l106.04-.45c15.77-.07 28.78 10.49 30.53 24.12.12.97.18 1.98.19 2.99z" fill="#ffdba9"/><path id="XMLID_1174_" d="m244.69 371.45c-.39.38-.8.73-1.23 1.06-8.47 6.71-22.72 4.93-30.65-2.56 0 0-17.64-16.63-17.71-16.69l-36.71-34.69-150.61.31c-1.47-5.83-2.74-11.73-3.8-17.71-1.29-7.23-2.28-14.58-2.94-22.01 68.06-.18 165.68-.34 167.22-.35 9.77-.05 16.04 7.26 21.6 12.48 3.54 3.37 52.98 49.85 52.98 49.85 3.9 3.67 6.36 8.81 7.02 14.05.76 5.96-.77 12.05-5.17 16.26z" fill="#ffc473"/></g><path id="XMLID_1048_" d="m94 266.83v142.67h-42.89c-30.07-40.08-48.66-89.26-50.88-142.67z" fill="#ff6378"/><path id="XMLID_33_" d="m94 318.57v90.93h-42.89c-20.06-26.74-35.02-57.53-43.4-90.93z" fill="#ed1c86"/></g></g></svg>