<svg id="Layer_1" enable-background="new 0 0 511 511" height="512" viewBox="0 0 511 511" width="512" xmlns="http://www.w3.org/2000/svg"><g><g><g><path d="m502.093 319.121c.236-.91.463-1.826.688-2.743-.222.917-.455 1.83-.688 2.743z" fill="#afe6ff"/></g><path d="m255 1c-7.489 0-14.758.322-21.798.918l-79.675 19.939c-36.59 15.698-57.171 34.529-57.268 34.584-3.787 17.481-10.374 42.85-10.374 61.465 0 140.833 118.763 254.972 259.596 254.972 42.33 0 82.235-13.9 117.361-34.266 29.109-16.877 47.034-48.043 47.156-81.691.002-.307.002-.613.002-.921 0-140.832-114.167-255-255-255z" fill="#aad540"/><g><path d="m93.26 148.533c-1.838-12.352-2.801-24.99-2.801-37.854 0-18.615 2.013-36.757 5.801-54.239-.006.005-.011.01-.017.014-30.777 24.519-55.743 56.013-72.534 92.079z" fill="#78d090"/></g></g><g><g><path d="m280.729 82.224v105.631c0 4.715 3.823 8.537 8.537 8.537s8.537-3.822 8.537-8.537v-105.631c0-39.289-27.706-72.211-64.601-80.302-25.819 2.184-48.549 8.042-67.698 15.15-19.531 15.047-32.149 38.647-32.149 65.152v105.631c0 4.715 3.822 8.537 8.537 8.537s8.537-3.822 8.537-8.537v-105.631c0-35.924 29.226-65.149 65.149-65.149 35.926 0 65.151 29.225 65.151 65.149z" fill="#2c5ace"/></g><g><path d="m84.432 148.476v297.068c32.144 28.945 71.685 49.834 115.446 59.48 35.996 3.067 66.908-25.323 66.908-61.449v-295.099z" fill="#dd544f"/></g><g><path d="m87.186 148.476h-63.45c-15.221 32.674-23.736 69.101-23.736 107.524 0 76.568 33.755 145.245 87.186 191.987z" fill="#c10a54"/></g><g><path d="m266.786 148.476h109.96v152.29h-109.96z" fill="#df6b57"/></g><g><g><path d="m194.208 82.224v105.631c0 4.715 3.822 8.537 8.537 8.537s8.537-3.822 8.537-8.537v-105.631c0-28.472-14.551-53.603-36.602-68.366-7.549 2.483-14.603 5.194-21.152 8.003 23.83 9.696 40.68 33.092 40.68 60.363z" fill="#26457d"/></g><g><path d="m46.835 108.734v79.121c0 4.715 3.822 8.537 8.537 8.537s8.537-3.822 8.537-8.537v-100.653c-6.065 6.86-11.767 14.045-17.074 21.532z" fill="#21386b"/></g></g></g><g><g><path d="m367.698 299.625v185.144l.181-.061c40.535-20.053 74.972-50.57 99.789-88.02v-97.063z" fill="#dd4fb1"/></g><g><path d="m199.881 299.625v205.383c17.752 3.912 36.192 5.992 55.119 5.992 16.175 0 31.995-1.516 47.332-4.398l9.142-206.977z" fill="#aa3684"/></g><g><path d="m467.667 299.625v97.063c15.527-23.431 27.296-49.571 34.426-77.567.236-.91.463-1.826.688-2.743.106-.436 1.068-4.522 1.418-6.139.071-.432 1.005-4.248 2.102-10.614z" fill="#dd4fb1"/></g><g><path d="m367.876 484.703v-185.078h-65.544v206.978c23.098-4.337 45.097-11.785 65.544-21.9z" fill="#ffe65a"/></g><g><path d="m506.302 299.625h-103.702v-25.461l91.13-29.909c8.082-2.653 16.396 3.369 16.396 11.875l-.013 2.42c-.075 13.777-1.35 27.52-3.811 41.075z" fill="#ffe65a"/></g><g><path d="m276.732 299.625h107.526v-25.461l-91.13-29.909c-8.082-2.653-16.396 3.369-16.396 11.875z" fill="#f1d333"/></g><g><path d="m423.768 299.625h-63.16v-27.304c0-5.897 4.78-10.677 10.677-10.677h41.806c5.897 0 10.677 4.78 10.677 10.677z" fill="#f1d333"/></g></g><g><g><path d="m486.402 167.776.04-.353c.606-5.396 2.724-10.51 6.111-14.753l12.156-15.233c8.388-10.511 8.388-25.427 0-35.938l-12.156-15.233c-3.387-4.244-5.505-9.358-6.111-14.754l-2.175-19.367c-1.501-13.364-12.048-23.911-25.412-25.412l-19.367-2.175c-5.396-.606-10.51-2.724-14.754-6.111l-15.233-12.156c-10.511-8.388-25.427-8.388-35.938 0l-15.233 12.157c-4.244 3.387-9.358 5.505-14.754 6.111l-19.367 2.175c-1.24.139-2.445.381-3.631.671v140.371z" fill="#2976ff"/></g><g><path d="m461.797 167.102c-77.41 0-140.208-62.531-140.656-139.835-11.88 2.651-20.96 12.559-22.344 24.879l-2.175 19.367c-.606 5.396-2.724 10.51-6.111 14.754l-12.156 15.233c-8.388 10.511-8.388 25.427 0 35.938l12.156 15.233c3.387 4.244 5.505 9.358 6.111 14.754l2.175 19.367c1.501 13.364 12.048 23.911 25.412 25.412l19.367 2.175c5.396.606 10.51 2.724 14.754 6.111l15.233 12.156c10.511 8.388 25.427 8.388 35.938 0l15.233-12.156c4.244-3.387 9.358-5.505 14.754-6.111l19.367-2.175c13.364-1.501 23.911-12.048 25.412-25.412l2.175-19.367c.097-.859.245-1.707.417-2.55-8.133 1.461-16.508 2.227-25.062 2.227z" fill="#186dea"/></g><g><path d="m336.517 116.631v-20.998c0-14.64 9.612-19.963 22.182-19.963 12.421 0 22.181 5.323 22.181 19.963v20.998c0 14.64-9.76 19.963-22.181 19.963-12.57 0-22.182-5.324-22.182-19.963zm29.575-20.998c0-4.88-2.81-7.098-7.394-7.098s-7.246 2.218-7.246 7.098v20.998c0 4.88 2.662 7.098 7.246 7.098s7.394-2.218 7.394-7.098zm60.628-18.189c0 .887-.148 1.922-.592 2.81l-52.051 106.616c-1.035 2.219-3.845 3.697-6.654 3.697-5.028 0-8.281-4.141-8.281-7.838 0-.887.296-1.922.739-2.809l51.903-106.617c1.183-2.514 3.549-3.696 6.211-3.696 4.141 0 8.725 3.105 8.725 7.837zm-22.329 86.802v-20.998c0-14.64 9.611-19.963 22.181-19.963 12.422 0 22.182 5.323 22.182 19.963v20.998c0 14.64-9.76 19.963-22.182 19.963-12.57 0-22.181-5.323-22.181-19.963zm29.574-20.998c0-4.88-2.81-7.099-7.394-7.099s-7.245 2.219-7.245 7.099v20.998c0 4.88 2.661 7.098 7.245 7.098s7.394-2.218 7.394-7.098z" fill="#186dea"/></g><g><path d="m336.517 104.63v-20.998c0-14.64 9.612-19.963 22.182-19.963 12.421 0 22.181 5.323 22.181 19.963v20.998c0 14.64-9.76 19.963-22.181 19.963-12.57 0-22.182-5.323-22.182-19.963zm29.575-20.998c0-4.88-2.81-7.098-7.394-7.098s-7.246 2.218-7.246 7.098v20.998c0 4.88 2.662 7.098 7.246 7.098s7.394-2.218 7.394-7.098zm60.628-18.189c0 .887-.148 1.922-.592 2.81l-52.051 106.616c-1.035 2.219-3.845 3.697-6.654 3.697-5.028 0-8.281-4.141-8.281-7.838 0-.887.296-1.922.739-2.809l51.903-106.617c1.183-2.514 3.549-3.696 6.211-3.696 4.141.001 8.725 3.105 8.725 7.837zm-22.329 86.802v-20.998c0-14.64 9.611-19.963 22.181-19.963 12.422 0 22.182 5.323 22.182 19.963v20.998c0 14.64-9.76 19.963-22.182 19.963-12.57 0-22.181-5.323-22.181-19.963zm29.574-20.998c0-4.88-2.81-7.099-7.394-7.099s-7.245 2.219-7.245 7.099v20.998c0 4.88 2.661 7.098 7.245 7.098s7.394-2.218 7.394-7.098z" fill="#ffe65a"/></g></g></g></svg>