<svg height="512pt" viewBox="0 0 512 512" width="512pt" xmlns="http://www.w3.org/2000/svg"><path d="m512 256c0 141.386719-114.613281 256-256 256s-256-114.613281-256-256 114.613281-256 256-256 256 114.613281 256 256zm0 0" fill="#5bc980"/><path d="m511.9375 260.867188-106.789062-106.789063-8.449219 8.449219-37.378907-37.378906-55.820312 17.851562-39.25-15.75-24 34-13.824219 4.175781-25.675781 25.675781 70.9375 70.9375-34.492188 34.492188-62-62-86.320312 86.324219 190.109375 190.109375c129.023437-11.484375 230.5-118.675782 232.953125-250.097656zm0 0" fill="#00ab5e"/><path d="m367.46875 144.800781c0 15.382813-12.417969 27.800781-27.800781 27.800781v-18.535156c5.1875 0 9.265625-4.078125 9.265625-9.265625 0-5.191406-4.078125-9.269531-9.265625-9.269531-15.382813 0-27.800781 12.417969-27.800781 27.800781v18.535157h-18.53125v-18.535157c0-15.382812-12.417969-27.800781-27.800782-27.800781-5.191406 0-9.269531 4.078125-9.269531 9.269531 0 5.1875 4.078125 9.265625 9.269531 9.265625v18.535156c-15.382812 0-27.800781-12.417968-27.800781-27.800781 0-15.382812 12.417969-27.800781 27.800781-27.800781 15.195313 0 28.539063 7.414062 37.066406 18.902344 8.523438-11.488282 21.867188-18.902344 37.066407-18.902344 15.382812 0 27.800781 12.417969 27.800781 27.800781zm0 0" fill="#fdbf00"/><path d="m367.46875 144.800781c0 15.382813-12.417969 27.800781-27.800781 27.800781v-18.535156c5.1875 0 9.265625-4.078125 9.265625-9.265625 0-5.191406-4.078125-9.269531-9.265625-9.269531-15.382813 0-27.800781 12.417969-27.800781 27.800781v18.535157h-9.265626v-45.964844c8.523438-11.488282 21.867188-18.902344 37.066407-18.902344 15.382812 0 27.800781 12.417969 27.800781 27.800781zm0 0" fill="#ff9100"/><path d="m386.617188 172.601562v148.265626h-65.484376l-18.53125-18.535157-18.535156 18.535157h-64.867187v-148.265626zm0 0" fill="#e63950"/><path d="m386.617188 172.601562v148.265626h-65.484376l-18.53125-18.535157v-129.730469zm0 0" fill="#ae2538"/><path d="m405.152344 154.066406v37.066406h-204.484375v-37.066406h83.398437l18.535156 18.535156 18.53125-18.535156zm0 0" fill="#ff637b"/><path d="m405.152344 154.066406v37.066406h-102.550782v-18.53125l18.53125-18.535156zm0 0" fill="#e63950"/><path d="m284.066406 154.066406h37.066406v166.800782h-37.066406zm0 0" fill="#ffda2d"/><path d="m302.601562 154.066406h18.53125v166.800782h-18.53125zm0 0" fill="#fdbf00"/><path d="m348.933594 357.933594v37.066406h-126.398438l-87.476562-74.132812h-46.210938v-92.667969h114.042969l79.507813 79.507812-26.132813 26.316407-47.445313-47.445313-13.160156 12.976563 58.382813 58.378906zm0 0" fill="#fed2a4"/><path d="m302.601562 357.933594h46.332032v37.066406h-46.332032zm0 0" fill="#ffbd86"/></svg>