<svg height="512pt" viewBox="0 0 512 512" width="512pt" xmlns="http://www.w3.org/2000/svg" xmlns:xlink="http://www.w3.org/1999/xlink"><linearGradient id="a" gradientUnits="userSpaceOnUse" x1="74.9807" x2="437.0193" y1="74.9807" y2="437.0193"><stop offset=".0053" stop-color="#5bc980"/><stop offset="1" stop-color="#00ab5e"/></linearGradient><linearGradient id="b"><stop offset="0" stop-color="#fdbf00"/><stop offset="1" stop-color="#ff9100"/></linearGradient><linearGradient id="c" gradientUnits="userSpaceOnUse" x1="264.3982" x2="340.8018" xlink:href="#b" y1="106.5979" y2="183.0016"/><linearGradient id="d"><stop offset=".0053" stop-color="#ff637b"/><stop offset="1" stop-color="#e63950"/></linearGradient><linearGradient id="e" gradientUnits="userSpaceOnUse" x1="223.9878" x2="381.83" xlink:href="#d" y1="167.8122" y2="325.6544"/><linearGradient id="f" gradientUnits="userSpaceOnUse" x1="242.5211" x2="363.2967" xlink:href="#d" y1="112.2122" y2="232.9878"/><linearGradient id="g" gradientUnits="userSpaceOnUse" x1="251.6333" x2="353.5667" xlink:href="#b" y1="186.5" y2="288.4333"/><linearGradient id="h" gradientUnits="userSpaceOnUse" x1="98.27" x2="311.7122" y1="218.7789" y2="432.2211"><stop offset="0" stop-color="#faecd8"/><stop offset="1" stop-color="#f4d7af"/></linearGradient><path d="m512 256c0 141.386719-114.613281 256-256 256s-256-114.613281-256-256 114.613281-256 256-256 256 114.613281 256 256zm0 0" fill="url(#a)"/><path d="m367.46875 144.800781c0 15.382813-12.417969 27.800781-27.800781 27.800781v-18.535156c5.1875 0 9.265625-4.078125 9.265625-9.265625 0-5.191406-4.078125-9.269531-9.265625-9.269531-15.382813 0-27.800781 12.417969-27.800781 27.800781v18.535157h-18.53125v-18.535157c0-15.382812-12.417969-27.800781-27.800782-27.800781-5.191406 0-9.269531 4.078125-9.269531 9.269531 0 5.1875 4.078125 9.265625 9.269531 9.265625v18.535156c-15.382812 0-27.800781-12.417968-27.800781-27.800781 0-15.382812 12.417969-27.800781 27.800781-27.800781 15.195313 0 28.539063 7.414062 37.066406 18.902344 8.523438-11.488282 21.867188-18.902344 37.066407-18.902344 15.382812 0 27.800781 12.417969 27.800781 27.800781zm0 0" fill="url(#c)"/><path d="m386.617188 172.601562v148.265626h-65.484376l-18.53125-18.535157-18.535156 18.535157h-64.867187v-148.265626zm0 0" fill="url(#e)"/><path d="m405.152344 154.066406v37.066406h-204.484375v-37.066406h83.398437l18.535156 18.535156 18.53125-18.535156zm0 0" fill="url(#f)"/><path d="m284.066406 154.066406h37.066406v166.800782h-37.066406zm0 0" fill="url(#g)"/><path d="m348.933594 357.933594v37.066406h-126.398438l-87.476562-74.132812h-46.210938v-92.667969h114.042969l79.507813 79.507812-26.132813 26.316407-47.445313-47.445313-13.160156 12.976563 58.382813 58.378906zm0 0" fill="url(#h)"/></svg>