<svg id="Layer_1" enable-background="new 0 0 512 512" height="512" viewBox="0 0 512 512" width="512" xmlns="http://www.w3.org/2000/svg"><g id="XMLID_18_"><g id="XMLID_1753_"><g id="XMLID_1754_"><g id="XMLID_1755_"><g id="XMLID_1756_"><g id="XMLID_1757_"><g id="XMLID_1758_"><g id="XMLID_1759_"><g id="XMLID_1760_"><g id="XMLID_1761_"><g id="XMLID_1762_"><g id="XMLID_1763_"><g id="XMLID_1764_"><g id="XMLID_1765_"><g id="XMLID_1766_"><circle id="XMLID_1870_" cx="256" cy="256" fill="#00e9f6" r="256"/></g></g></g></g></g></g></g></g></g></g></g></g></g></g><path id="XMLID_182_" d="m512 256c0-10.722-.669-21.287-1.949-31.663l-92.051-92.051-9.382 4.906-59.108-59.172-69.965 63.31-22.736.61-63.43-63.445-3.712 64.474-95.667 69.887 39.964 39.681-18.703 166.318 87.61 87.61c17.141 3.618 34.91 5.535 53.129 5.535 141.385 0 256-114.615 256-256z" fill="#2ebff0"/><g id="XMLID_2040_"><path id="XMLID_2050_" d="m240.5 132.286-47.121-53.79c-13.033-14.878-37.546-5.66-37.546 14.12v50.355z" fill="#ffe767"/><path id="XMLID_2049_" d="m270.5 132.286 47.121-53.79c13.034-14.878 37.546-5.66 37.546 14.12v50.355z" fill="#ffc100"/><path id="XMLID_2048_" d="m115.261 187.304h281.478v231.551h-281.478z" fill="#ff6378"/><path id="XMLID_2047_" d="m256 187.3h140.74v231.55h-140.74z" fill="#ed1c86"/><path id="XMLID_2046_" d="m115.261 288.079h281.478v30h-281.478z" fill="#ffc100" transform="matrix(-1 0 0 -1 512 606.159)"/><path id="XMLID_2045_" d="m256 288.08h140.74v30h-140.74z" fill="#ff9b00"/><path id="XMLID_2044_" d="m94 132.286h324v80.569h-324z" fill="#ed1c86"/><path id="XMLID_2043_" d="m256 132.29h162v80.57h-162z" fill="#cc0070"/><path id="XMLID_2042_" d="m112.216 260.571h286.569v30h-286.569z" fill="#ffe767" transform="matrix(0 1 -1 0 531.071 20.071)"/><path id="XMLID_2041_" d="m256 132.29h14.5v286.56h-14.5z" fill="#ffc100"/></g></g></svg>