<svg id="Layer_1" enable-background="new 0 0 512 512" height="512" viewBox="0 0 512 512" width="512" xmlns="http://www.w3.org/2000/svg"><g id="XMLID_994_"><g id="XMLID_776_"><g id="XMLID_777_"><g id="XMLID_778_"><g id="XMLID_779_"><g id="XMLID_1329_"><g id="XMLID_1425_"><g id="XMLID_1646_"><g id="XMLID_1716_"><g id="XMLID_1730_"><g id="XMLID_1731_"><g id="XMLID_1732_"><g id="XMLID_1733_"><g id="XMLID_1735_"><g id="XMLID_1736_"><circle id="XMLID_1737_" cx="256" cy="256" fill="#5c68e1" r="256"/></g></g></g></g></g></g></g></g></g></g></g></g></g></g><path id="XMLID_1087_" d="m512 256c0-.741-.022-1.477-.028-2.216l-67.921-67.666s-3.209-3.346-9.261-5.492l-94.428-95.225-85.332 99.152-21.104-20.767-164.204 219.581 119.932 119.933c21.162 5.663 43.398 8.7 66.346 8.7 141.385 0 256-114.615 256-256z" fill="#00419c"/><g id="XMLID_1206_"><g id="XMLID_1109_"><g id="XMLID_1111_"><path id="XMLID_1113_" d="m447.927 249.497c0-8.446-3.5-16.072-9.122-21.519 6.983-5.487 11.473-14.002 11.473-23.572 0-16.551-13.417-29.969-29.968-29.969h-84.641s14-27.772 14.333-58.772c.258-23.99-13.083-39.542-24.375-34.609-7.463 3.261-16.958 11.692-27.164 27.749-19.186 30.187-44.463 65.634-44.463 65.634h-76.439v193.281h235.982c11.329-4.277 19.389-15.216 19.389-28.042 0-6.706-2.203-12.897-5.925-17.89 10.266-4.755 17.39-15.143 17.39-27.201 0-8.185-3.285-15.6-8.604-21.009 7.362-5.46 12.134-14.212 12.134-24.081z" fill="#fff"/><path id="XMLID_1112_" d="m413.547 367.716c11.323-4.268 19.391-15.215 19.391-28.038 0-6.701-2.21-12.894-5.93-17.891 10.269-4.754 17.395-15.144 17.395-27.197 0-8.19-3.284-15.6-8.606-21.013h-258.234v94.143h235.984z" fill="#fff5ca"/></g><path id="XMLID_1110_" d="m69.722 163.786h164.205v219.581h-164.205z" fill="#00ff95"/></g><path id="XMLID_148_" d="m69.72 273.58h164.21v109.79h-164.21z" fill="#00ce8e"/></g></g></svg>