<svg id="Capa_1" enable-background="new 0 0 501 501" height="512" viewBox="0 0 501 501" width="512" xmlns="http://www.w3.org/2000/svg"><g><path d="m495.472 252.276c2.022 135.73-107.787 247.939-243.53 248.72-51.858.298-100.007-15.516-139.733-42.729-3.358-2.3-6.22-5.247-8.472-8.637-14.833-22.334-33.231-42.095-54.383-58.471-4.437-3.435-8.186-7.668-10.999-12.524-21.207-36.607-33.211-79.21-32.847-124.644 1.082-134.916 110.072-242.991 244.992-242.991 134.066 0 242.982 107.683 244.972 241.276z" fill="#0280e3"/><path d="m495.5 256c0 11.384-.776 22.586-2.279 33.558-30.316 81.991-109.193 140.442-201.721 140.442-118.741 0-215-96.259-215-215 0-92.528 58.451-171.405 140.442-201.721 10.972-1.503 22.174-2.279 33.558-2.279 135.31 0 245 109.69 245 245z" fill="#0191f8"/><path d="m140.724 180h-65c-4.142 0-7.5-3.358-7.5-7.5s3.358-7.5 7.5-7.5h65c4.142 0 7.5 3.358 7.5 7.5s-3.358 7.5-7.5 7.5zm8.778-47.731-33.425-11.837c-3.905-1.383-8.191.662-9.573 4.566-1.383 3.905.662 8.191 4.566 9.573l33.425 11.837c3.905 1.383 8.191-.662 9.573-4.566s-.662-8.191-4.566-9.573zm-6.443 70.047-20.388 9.724c-3.739 1.783-5.324 6.26-3.541 9.998 1.783 3.739 6.26 5.324 9.998 3.541l20.388-9.724c3.739-1.783 5.324-6.26 3.541-9.998-1.783-3.739-6.259-5.324-9.998-3.541zm137.629 213.96c-4.142 0-7.5 3.358-7.5 7.5v48.724c0 4.142 3.358 7.5 7.5 7.5s7.5-3.358 7.5-7.5v-48.724c0-4.142-3.358-7.5-7.5-7.5zm-30.658-5.844c-3.905-1.383-8.191.662-9.573 4.566l-4.502 12.713c-1.383 3.905.662 8.191 4.566 9.573s8.191-.662 9.573-4.566l4.502-12.713c1.383-3.904-.661-8.19-4.566-9.573zm83.738 24.939-9.724-20.388c-1.783-3.739-6.26-5.324-9.998-3.541-3.739 1.783-5.324 6.259-3.541 9.998l9.724 20.388c1.783 3.739 6.26 5.324 9.998 3.541s5.324-6.259 3.541-9.998z" fill="#91cefb"/><path d="m434.742 124.07c-.283 14.76-7.751 26.637-18.929 29.903-.06.018-.12.035-.18.052-36.892 10.694-76.42-3.568-106.932-34.193-30.512 30.625-70.04 44.887-106.932 34.193-.06-.017-.12-.035-.18-.052-11.178-3.265-18.646-15.143-18.929-29.903-.348-18.184 2.084-37.253 7.624-56.365 5.54-19.113 13.683-36.526 23.702-51.705 8.132-12.32 20.795-18.363 31.986-15.144.06.017.12.035.18.052 28.043 8.129 49.661 29.256 62.549 57.456 12.888-28.2 34.506-49.327 62.549-57.456.06-.017.12-.035.18-.052 11.191-3.219 23.854 2.823 31.986 15.144 10.019 15.179 18.162 32.593 23.702 51.705s7.972 38.181 7.624 56.365z" fill="#e31e7f"/><path d="m241.69 156.338c-13.291 2.139-26.774 1.498-39.922-2.313-.06-.017-.12-.035-.18-.052-11.178-3.265-18.646-15.143-18.929-29.903-.348-18.184 2.084-37.253 7.624-56.365 5.54-19.113 13.683-36.526 23.702-51.705 8.132-12.32 20.795-18.363 31.986-15.144.06.017.12.035.18.052 3.233.937 6.381 2.048 9.439 3.321-4.437 2.735-8.526 6.727-11.856 11.771-10.019 15.179-18.162 32.593-23.702 51.705s-7.972 38.181-7.624 56.365c.283 14.76 7.751 26.637 18.929 29.903.06.018.12.035.18.052 3.372.977 6.766 1.746 10.173 2.313zm122.427-152.66c.078-.154.155-.308.233-.462-38.291 14.578-63.226 54.391-68.192 102.449 31.657 40.186 77.289 60.588 119.474 48.36.06-.017.12-.035.18-.052 11.178-3.265 18.646-15.143 18.929-29.903.109-5.714-.056-11.515-.506-17.378-15.102-1.597-30.046-6.828-44.063-15.127-30.323-17.954-41.877-56.398-26.055-87.887z" fill="#c2186c"/><path d="m425.049 346.663h-232.698c-4.973 0-9.005-4.032-9.005-9.005v-243.144c0-4.973 4.032-9.005 9.005-9.005h232.697c4.973 0 9.005 4.032 9.005 9.005v243.143c.001 4.974-4.031 9.006-9.004 9.006z" fill="#f19b0b"/><path d="m425.049 346.663h-207.122c-4.973 0-9.005-4.032-9.005-9.005v-171.101c0-4.973 4.032-9.005 9.005-9.005h216.127v180.106c0 4.973-4.032 9.005-9.005 9.005zm19.451-216.128v-36.021c0-4.973-4.032-9.005-9.005-9.005h-253.59c-4.973 0-9.005 4.032-9.005 9.005v36.021c0 4.973 4.032 9.005 9.005 9.005h253.589c4.974.001 9.006-4.031 9.006-9.005z" fill="#f5c02c"/><path d="m435.495 139.541h-221.99c-4.974 0-9.005-4.032-9.005-9.005v-36.022c0-4.974 4.032-9.005 9.005-9.005h221.989c4.974 0 9.005 4.032 9.005 9.005v36.021c.001 4.974-4.031 9.006-9.004 9.006z" fill="#f1ca50"/><path d="m222.5 125.509h40v50h-40zm133 0v50h40v-50z" fill="#f5c02c"/><path d="m222.5 157.551h40v172.449h-40zm0-18.01h40v-54.032h-40zm133 190.459h40v-172.449h-40zm0-244.491v54.032h40v-54.032z" fill="#fde803"/><path d="m395.5 85.509v54.032h-40v-54.032zm-173 54.032h40v-54.032h-40z" fill="#fdf385"/><path d="m335.716 76.503v261.154c0 4.974-4.032 9.005-9.005 9.005h-36.021c-4.974 0-9.005-4.032-9.005-9.005v-261.154c0-14.92 12.095-27.016 27.016-27.016s27.015 12.096 27.015 27.016z" fill="#fd4fb6"/><path d="m335.716 157.551h-54.032v-18.011h54.032z" fill="#e31e7f"/><path d="m335.716 78.539v6.969h-54.032v-9.005c0-13.376 9.722-24.482 22.485-26.637.203 15.924 13.175 28.771 29.147 28.771.808 0 1.609-.033 2.4-.098z" fill="#fd3d96"/><path d="m457.786 322.059-61.494 54.661c-10.983 9.763-25.167 15.156-39.862 15.156h-172.163c-2.652 0-5.196 1.054-7.071 2.929l-53.333 53.333-77.061-78.503 114.328-114.328c15.003-15.003 35.351-23.431 56.568-23.431h123.024c11.985 0 21.65 9.928 21.221 22.009-.409 11.507-10.216 20.461-21.73 20.461h-105.118c-1.906 0-5.928.696-8.646 3.581-7.702 7.702-2.247 20.872 8.646 20.872h144.147l47.698-14.676c4.841-1.489 9.877-2.247 14.941-2.247 7.576 0 14.501 4.28 17.889 11.056l2.617 5.235c4.045 8.088 2.158 17.884-4.601 23.892z" fill="#faf1ee"/><path d="m252.698 231.876c-21.217 0-41.566 8.428-56.569 23.431l-46.569 46.569-86.592 86.592-16.167-18.833 67.759-67.759 46.569-46.569c15.003-15.003 35.351-23.431 56.569-23.431zm211.727 76.957-67.094 34.815-85.023 7.501c-4.709.415-8.19 4.57-7.775 9.279s4.57 8.19 9.279 7.775l85.023-7.5 38.573-20.53 20.378-18.113c3.926-3.491 6.208-8.258 6.639-13.227zm-159.478 6.49c-4.728 0-8.56 3.833-8.56 8.56 0 4.728 3.833 8.56 8.56 8.56h85.353l73.099-31.876c-.282-.813-.619-1.615-1.012-2.401l-2.617-5.235c-1.142-2.283-2.685-4.282-4.52-5.931l-64.95 28.323z" fill="#f4e0d8"/><path d="m374.5 241.876v4.424c0 5.523-4.477 10-10 10h-25c-2.761 0-5-2.239-5-5v-14.424c0-2.761 2.239-5 5-5h25c5.523 0 10 4.477 10 10z" fill="#fd4343"/><path d="m100.802 376.167c4.841 4.841 4.841 12.689 0 17.531l-29.44 29.44c-16.033-17.177-29.625-36.662-40.222-57.902l20.6-20.6c4.841-4.841 12.69-4.841 17.53 0z" fill="#f52c2c"/><path d="m151.74 427.105c4.841 4.841 4.841 12.689 0 17.531l-23.643 23.643c-27.882-16.112-52.294-37.559-71.84-62.946l28.09-28.09c4.841-4.841 12.69-4.841 17.531 0z" fill="#fd4343"/><path d="m163.263 433.113-.707.707c-2.734 2.734-7.166 2.734-9.9 0l-90.1-90.101c-2.734-2.734-2.734-7.166 0-9.899l.707-.707c2.734-2.734 7.166-2.734 9.899 0l90.101 90.101c2.733 2.733 2.733 7.166 0 9.899z" fill="#f19b0b"/><path d="m163.263 433.113-.707.707c-2.734 2.734-7.166 2.734-9.9 0l-57.494-57.494c-2.734-2.734-2.734-7.166 0-9.9l.707-.707c2.734-2.734 7.166-2.734 9.899 0l57.494 57.494c2.734 2.734 2.734 7.167.001 9.9z" fill="#f5c02c"/></g></svg>